<svg viewBox="0 0 840.8 512" xmlns="http://www.w3.org/2000/svg" xmlns:xlink="http://www.w3.org/1999/xlink"><style>:root&gt;svg{display:none}:root&gt;svg:target{display:block}</style><svg viewBox="0 0 24 24" fill="none" stroke="currentColor" stroke-width="2" stroke-linecap="round" stroke-linejoin="round" id="arrow-right" xmlns="http://www.w3.org/2000/svg"><path d="M5 12h14m-7-7l7 7-7 7"/></svg><svg viewBox="0 0 24 24" fill="none" stroke-width="2" stroke-linecap="round" stroke-linejoin="round" class="bfeather bfeather-shopping-cart" id="cart" xmlns="http://www.w3.org/2000/svg"><circle cx="9" cy="21" r="1"/><circle cx="20" cy="21" r="1"/><path d="M1 1h4l2.68 13.39a2 2 0 002 1.61h9.72a2 2 0 002-1.61L23 6H6"/></svg><svg viewBox="0 0 16 16" id="discord" xmlns="http://www.w3.org/2000/svg"><path d="M13.545 2.907a13.227 13.227 0 00-3.257-1.011.05.05 0 00-.052.025c-.141.25-.297.577-.406.833a12.19 12.19 0 00-3.658 0 8.258 8.258 0 00-.412-.833.051.051 0 00-.052-.025c-1.125.194-2.22.534-3.257 1.011a.041.041 0 00-.021.018C.356 6.024-.213 9.047.066 12.032c.001.014.01.028.021.037a13.276 13.276 0 003.995 2.02.05.05 0 00.056-.019c.308-.42.582-.863.818-1.329a.05.05 0 00-.01-.059.051.051 0 00-.018-.011 8.875 8.875 0 01-1.248-.595.05.05 0 01-.02-.066.051.051 0 01.015-.019c.084-.063.168-.129.248-.195a.05.05 0 01.051-.007c2.619 1.196 5.454 1.196 8.041 0a.052.052 0 01.053.007c.08.066.164.132.248.195a.051.051 0 01-.004.085 8.254 8.254 0 01-1.249.594.05.05 0 00-.03.03.052.052 0 00.003.041c.24.465.515.909.817 1.329a.05.05 0 00.056.019 13.235 13.235 0 004.001-2.02.049.049 0 00.021-.037c.334-3.451-.559-6.449-2.366-9.106a.034.034 0 00-.02-.019zm-8.198 7.307c-.789 0-1.438-.724-1.438-1.612 0-.889.637-1.613 1.438-1.613.807 0 1.45.73 1.438 1.613 0 .888-.637 1.612-1.438 1.612zm5.316 0c-.788 0-1.438-.724-1.438-1.612 0-.889.637-1.613 1.438-1.613.807 0 1.451.73 1.438 1.613 0 .888-.631 1.612-1.438 1.612z"/></svg><svg viewBox="0 0 16 16" id="lk" xmlns="http://www.w3.org/2000/svg"><path d="M8 8a3 3 0 100-6 3 3 0 000 6zm2-3a2 2 0 11-4 0 2 2 0 014 0zm4 8c0 1-1 1-1 1H3s-1 0-1-1 1-4 6-4 6 3 6 4zm-1-.004c-.001-.246-.154-.986-.832-1.664C11.516 10.68 10.289 10 8 10c-2.29 0-3.516.68-4.168 1.332-.678.678-.83 1.418-.832 1.664h10z"/></svg><svg viewBox="0 0 146.802 120.415" id="mastercard" xmlns="http://www.w3.org/2000/svg"><path fill="none" d="M0 0h146.802v120.415H0z"/><path d="M36.345 105.259v-6a3.558 3.558 0 00-3.76-3.8 3.702 3.702 0 00-3.359 1.7 3.511 3.511 0 00-3.16-1.7 3.161 3.161 0 00-2.799 1.42V95.7h-2.08v9.56h2.1v-5.3a2.236 2.236 0 012.34-2.54c1.38 0 2.08.9 2.08 2.52v5.32h2.1v-5.3a2.254 2.254 0 012.339-2.54c1.42 0 2.1.9 2.1 2.52v5.32zm31.076-9.56h-3.4V92.8h-2.1v2.9h-1.939v1.9h1.94v4.359c0 2.22.86 3.54 3.32 3.54a4.885 4.885 0 002.599-.74l-.6-1.78a3.839 3.839 0 01-1.84.54c-1.04 0-1.38-.64-1.38-1.6V97.6h3.4zm17.738-.24a2.82 2.82 0 00-2.52 1.4V95.7h-2.06v9.56h2.08V99.9c0-1.58.68-2.46 2.04-2.46a3.388 3.388 0 011.3.24l.64-1.96a4.446 4.446 0 00-1.48-.26zm-26.817 1a7.148 7.148 0 00-3.9-1c-2.419 0-3.979 1.16-3.979 3.06 0 1.56 1.16 2.52 3.3 2.82l.98.14c1.14.16 1.68.46 1.68 1 0 .74-.76 1.16-2.18 1.16a5.092 5.092 0 01-3.18-1l-.98 1.62a6.897 6.897 0 004.14 1.24c2.76 0 4.36-1.3 4.36-3.12 0-1.68-1.26-2.56-3.34-2.86l-.98-.14c-.9-.12-1.62-.3-1.62-.94 0-.7.68-1.12 1.82-1.12a6.163 6.163 0 012.98.82zm55.713-1a2.82 2.82 0 00-2.52 1.4V95.7h-2.06v9.56h2.08V99.9c0-1.58.68-2.46 2.04-2.46a3.389 3.389 0 011.3.24l.64-1.96a4.447 4.447 0 00-1.48-.26zm-26.797 5.02a4.83 4.83 0 005.1 5.02 5.007 5.007 0 003.44-1.14l-1-1.68a4.202 4.202 0 01-2.5.86 3.065 3.065 0 010-6.12 4.201 4.201 0 012.5.86l1-1.68a5.008 5.008 0 00-3.44-1.14 4.83 4.83 0 00-5.1 5.02zm19.478 0v-4.78h-2.08v1.16a3.626 3.626 0 00-3.02-1.4 5.025 5.025 0 000 10.04 3.626 3.626 0 003.02-1.4v1.16h2.08zm-7.74 0a2.894 2.894 0 112.9 3.06 2.867 2.867 0 01-2.9-3.06zM73.9 95.459a5.024 5.024 0 00.14 10.04 5.81 5.81 0 003.92-1.34l-1.02-1.54a4.554 4.554 0 01-2.78 1 2.655 2.655 0 01-2.86-2.34h7.1c.02-.26.04-.52.04-.8-.02-2.98-1.86-5.02-4.54-5.02zm-.04 1.86a2.374 2.374 0 012.42 2.32h-4.96a2.46 2.46 0 012.54-2.32zm52.173 3.16v-8.618h-2.08v4.999a3.626 3.626 0 00-3.02-1.4 5.025 5.025 0 000 10.039 3.626 3.626 0 003.02-1.4v1.16h2.08zm3.467 3.394a.954.954 0 01.376.075.976.976 0 01.307.204.957.957 0 01.208.302.934.934 0 010 .737.965.965 0 01-.208.302.998.998 0 01-.307.205.94.94 0 01-.376.076.968.968 0 01-.898-.583.936.936 0 010-.737.963.963 0 01.206-.302.95.95 0 01.309-.204.982.982 0 01.383-.075zm0 1.69a.707.707 0 00.286-.057.754.754 0 00.233-.159.745.745 0 000-1.048.738.738 0 00-.233-.157.717.717 0 00-.286-.057.747.747 0 00-.292.057.73.73 0 00-.237.157.744.744 0 000 1.048.745.745 0 00.237.159.737.737 0 00.292.058zm.056-1.184a.402.402 0 01.262.075.253.253 0 01.092.206.24.24 0 01-.074.18.35.35 0 01-.208.088l.289.333h-.226l-.268-.33h-.086v.33h-.189v-.882zm-.22.165v.235h.218a.213.213 0 00.118-.03.1.1 0 00.044-.089.098.098 0 00-.044-.087.215.215 0 00-.118-.029zm-11.042-4.065a2.894 2.894 0 112.9 3.06 2.867 2.867 0 01-2.9-3.06zm-70.23 0v-4.78h-2.08v1.16a3.626 3.626 0 00-3.02-1.4 5.025 5.025 0 000 10.04 3.626 3.626 0 003.02-1.4v1.16h2.08zm-7.74 0a2.894 2.894 0 112.9 3.06 2.867 2.867 0 01-2.9-3.06z" fill="#231f20"/><path fill="#ff5f00" d="M57.651 22.854h31.5V79.46h-31.5z"/><path d="M59.652 51.157a35.938 35.938 0 0113.75-28.303 36 36 0 100 56.606 35.938 35.938 0 01-13.75-28.303z" fill="#eb001b"/><path d="M131.647 51.157A35.999 35.999 0 0173.402 79.46a36.005 36.005 0 000-56.606 35.999 35.999 0 0158.245 28.303zm-3.435 22.307v-1.16h.467v-.235h-1.19v.236h.467v1.159zm2.31 0v-1.397h-.365l-.42.96-.419-.96h-.365v1.397h.258V72.41l.393.909h.267l.394-.911v1.056z" fill="#f79e1b"/></svg><svg viewBox="0 0 400 120" id="mir" xmlns="http://www.w3.org/2000/svg"><g fill="none" fill-rule="evenodd"><path d="M63.55 13.016c3.145-.018 12.491-.86 16.45 12.5 2.667 9 6.915 23.743 12.744 44.228h2.373c6.252-21.597 10.546-36.34 12.883-44.227 4-13.5 14-12.5 18-12.5h30.861v96h-31.454V52.441h-2.11l-17.534 56.574H82.098L64.564 52.4h-2.11v56.616H31v-96zm138.479 0v56.617h2.509l21.329-46.555c4.14-9.265 12.964-10.061 12.964-10.061h30.439v96h-32.111V52.4h-2.51l-20.91 46.556c-4.14 9.222-13.383 10.06-13.383 10.06h-30.439v-96h32.112zm178.232 45.62c-4.48 12.693-18.546 21.784-34.12 21.784h-33.674v28.597H281.93v-50.38z" fill="#0F754E"/><path d="M347.614 13.017H280.33c1.602 21.373 20.007 39.67 39.061 39.67h62.992c3.635-17.764-8.879-39.67-34.768-39.67z" fill="#1F5CD7"/></g></svg><svg image-rendering="optimizeQuality" shape-rendering="geometricPrecision" text-rendering="geometricPrecision" viewBox="0 0 840.8 360.4" id="qiwi" xmlns="http://www.w3.org/2000/svg"><path d="M340 347.9c-1.6-4.4-4.5-7.4-6.6-11.3-5.1-6.7-11.1-12.5-17.1-18.3-2.1-.7-3-2.7-5-3.5-1.3-1.7-3.4-2.6-5.1-3.9-3.4-2.6-7.1-4.8-10.9-7-7.2-4.6-16.1-7.5-24.9-10.5-9.5-2.3-19.5-4-29.9-5.4-10.3-1.5-20.6-2.9-28.4-7-4.5-1.3-7.8-3.8-11.7-5.8-3.6-2.4-7.5-4.4-10.5-7.4-3.7-2.2-6-5.9-8.9-8.9-1-2-2.7-3.2-3.5-5.4-1-.4-1.3-1.6-1.9-2.3-.7-.8-.7-2.4-1.9-2.7-.6 4.1-.4 9 0 13.2.5 1.8.7 4 1.2 5.8.3 1.6 1.8 4.2 1.2 5.4-31.2-1.6-54-11.5-73.8-24.5-9.8-6.5-18.2-14.4-26-22.9-3.4-4.7-7.1-9.2-10.1-14.4-3.1-5.1-5.7-10.9-8.5-16.3-4.6-11.7-8.9-23.7-10.5-38.4-2.1-13.7-1.6-31.2 1.5-43.9 1.1-7 3.4-12.9 5.4-19 1.3-2.8 2.7-5.6 3.9-8.5 1.7-2.4 2.6-5.7 4.7-7.8 5.7-10.7 14.2-18.7 22.9-26.4 9.4-6.9 20.1-12.5 33-15.9 12.4-2.8 29.3-3.3 42.7-.4 27.2 5.6 47.7 17.8 64.9 33.4 17.4 15.3 30.8 34.7 40 58.3 9.5 22.4 12.8 57.3 4.3 82.7-3.5-2-7-3.9-10.5-5.8-4.2-1.2-8.3-2.6-13.2-3.1-5.9-.1-11.7 0-15.5 1.9 7.7-.8 13.9 1.3 18.7 3.1 2.8 1.1 4.4 1.8 6.6 3.1 4.3 2.5 8.1 4.8 11.3 8.2 9.1 8 15.6 18.6 18.7 32.6 0 .4.5.3.4-.4.4-.1.6-.4.8-.8.5-.6 1.1-1.2 1.6-1.9 1-1.2 2-2.4 2.7-3.9 2.1-2.5 3.8-5.3 5.4-8.2 3.7-5.4 6.5-11.6 9.7-17.5 5.5-12.6 10-26.2 12.8-41.6 5.6-34.2-1.1-66.6-12.8-90.5-12-24.1-28.8-43.4-50.5-57.9-21.9-14.4-47.5-25-82.7-26-.2-.7-.5.1-1.2 0-18.6-.6-33.6 2-48.5 5.8-6.9 2.3-14.1 4.3-20.2 7.4-7 2.3-12.6 6.1-19 8.9-2.3 2.2-5.8 3.3-8.2 5.4-3.1 1.5-5.4 3.9-8.5 5.4-5 4.4-10.3 8.3-15.2 12.8-4.8 4.4-9 9.4-13.6 14-.7 1.6-1.9 2.7-3.1 3.9-.8 1.5-1.8 2.8-3.1 3.9-.5 1.8-2.1 2.5-2.7 4.3-1.3 1-1.6 3-3.1 3.9-1.3 3.2-3.6 5.5-5.1 8.5-1.8 2.9-3.2 6.1-5 8.9-2.8 6.5-5.8 12.8-8.1 19.8-2.4 6.8-4.4 14-5.8 21.8-1.5 7.3-2.9 16.8-2.7 24.5-1 2.8-.2 8 0 11.3 0 .6-.4.8-.4 1.2 0 3.7 1 8.2 1.2 10.5.8 8.5 2.3 16.4 4.7 23.3 1.5 7.7 4.7 13.7 7 20.6 3.5 5.8 5.9 12.7 10.1 17.9 3.1 6.1 7.5 10.9 11.7 15.9 4.5 4.8 9 9.7 14.4 13.6 9.9 8.6 21.5 15.5 34.2 21.4 23.7 11.5 59.1 19 90.9 17.1 8.1-1.1 16.3-2.1 23.7-3.9 6.8-2.5 14.7-4 22.9-5 18.7-1.2 34.9.5 49.3 4.7 14.6 3.9 27.2 9.8 38.1 17.5 5.8 3.4 10.6 7.8 15.5 12 5 4.3 9 9.6 13.6 14.4.6 1.8 1.8 3.1 2.7 4.7 1.2 1.3.6 4.3 3.5 3.9 1.8-1.8-.3-4.4-.4-6.6-1.8-1.9-2.2-4.4-3.6-6z" fill="#fcb316"/><path d="M267.4 241.5c-.4 0-.5.3-.8.4-.7 1.5-.4 3.9 0 5.4 2.1 4.3 2.8 9.9 7.4 11.7 2.2-.7 2-3.9 1.9-7-1-3.8-2.4-7.2-4.7-9.7-1.6-.6-2.7-1.6-3.8-.8zm-27.2 10.9c0-.2-.3-.4-.4 0-3.8-.5-5.1 1.6-7 3.1-3.3 8.7 2 17.2 11.3 17.1 3.7-.9 6-3.3 6.6-7.4-.5-7.3-3.6-12-10.5-12.8z" fill="#fcb316"/><path d="M464.4 224.7c1.5 6.3 4.7 10.8 8.3 15s7.8 7.7 12.9 10.3c4.8 3 10 5.5 16 7.2 2.9 1 5.7 2.2 9.3 2.6 2.5 1.4 5.5 2.1 5.7 5.7-.1 4.3-3 5.9-6.7 6.7-3.7-.8-8.3-.7-11.4-2.1-7.8-.9-14.1-3.4-20.7-5.7-12.6-4.9-23.2-12-32-20.7-1.8-3-4.3-5.4-6.2-8.3s-3.2-6.4-5.2-9.3c-15.4-2-25.9-9-35.1-17.1-8.5-9.7-15.3-21.3-18.1-36.7-3.3-14.8-2.3-33.3 1.6-47.6 8.5-27.7 26.3-46.1 59.9-48.6 9.3.3 17.4 1.4 24.8 4.2 7.5 2.7 14.6 7.7 20.2 12.9.5.4.7.5 1 1 1.2 1.7 4.1 4.1 5.7 6.2.3.4.2 1.1.5 1.6.6.9 1.5 1.3 2.1 2.1.3.5.2 1.1.5 1.5.4.6.9 1.5 1.5 2.6.2.4.9.7 1 1 .9 1.7 1.3 3.8 2.1 5.7.8 2 1.9 3.7 2.6 5.7 2 5.9 3.3 12.9 4.1 20.1 2 20.8-2.1 39.4-9.8 53.2-3.6 7.2-8.6 13.1-14.5 18.1-5.4 5.7-12.8 9.1-20.1 12.7zM439.6 94.5c-4.5.3-7.2 2.4-10.9 3.6-2.4 2.2-5.4 3.9-7.2 6.7-3 1.7-3.8 5.5-6.2 7.7-2 5-3.9 10.6-5.2 17.1-1.2 6.4-2 13.6-2.1 20.7-.1 17.8 3.7 35.5 10.8 46 4.2 5.1 9.3 9.3 15.5 12.4 3.6.3 6.4 1.5 10.3 1.6 2.2-.8 5.8 0 7.2-1.6 3.2.2 3.9-1.9 6.7-2.1 1.5-1.5 3.1-2.7 5.2-3.6 1.9-2.1 3.7-4.2 5.7-6.2 1-1.5 1.6-3.6 3.1-4.7 9-17.2 10-48.7 4.1-68.7-2.2-7.3-5.3-13.2-8.8-18.1-3.8-3.9-8.3-7.2-13.4-9.8-4.1-.9-8-2-13.4-1.5-.3 0-.6.1-.5.5h-.9zM548.7 80c8.1.3 17.6-.7 24.8.5 1.6 2.5 1 5.5 1 8.3.6 37.9 0 78.6 0 117.3 0 3.1.1 6.3 0 9.3-.1 2.6.6 5.4-1 7.8-3.6.9-8.8.5-13.4.5-4.9 0-9.7.7-12.9-1-.9-45.8-.9-95.2 0-141.1.2-.8.7-1.3 1.5-1.6zm62 0H635c2.2 3 2.9 7.5 3.6 11.9 7.3 27.8 14.5 55.7 21.2 84.2 1.6.2 1.1-1.7 1.6-2.6.7-.7.3-2.4 1-3.1.3-2.3 1.7-3.5 1.6-6.2 1.8-3.5 2.4-8.3 4.1-11.9 2.1-8.4 4.9-16.2 7.3-24.3 2.3-8.4 5.4-16 7.2-24.8 3.4-7.1 4.2-16.8 8.3-23.2h10.3c3.7 7 5.1 16.3 8.3 23.8 2.1 8.4 5 16 7.2 24.3 5.1 16.1 10.4 32 15 48.6 2.1-3.1 2.1-8.3 3.6-11.9.9-4.1 1.7-8.3 3.1-11.9 4-16.4 7.8-32.9 12.4-48.6 1.7-8.2 3.4-16.6 6.2-23.8 6-.9 15.2-.9 21.2 0 .5 6.1-2.3 12.7-4.1 18.1-1 6.6-3.4 11.7-4.7 18.1-3.7 11.7-6.5 24.1-10.3 35.7-2.9 12.4-6.8 23.8-9.8 36.2-2 5.7-3.4 12-5.2 18.1-2 5.6-2.7 12.5-5.7 17.1h-14.5c-3.7-6.5-5-15.3-8.3-22.2-7.2-22.8-15.2-44.7-22.2-67.7-2.4 2.5-2.4 7.6-4.1 10.8-1.1 3.9-2.2 7.8-3.6 11.4-2 7.9-5 14.6-6.7 22.7-2.9 7.1-5 15-7.2 22.8-3 6.8-4.1 15.5-7.8 21.7-3.8 1.2-9.8.2-14.5.5-3.6-4.1-4-11.5-6.2-17.1-1.7-5.8-2.9-12.2-5.1-17.6-2.8-12.6-7-23.7-9.8-36.2-3.7-11.6-6.9-23.7-10.3-35.7-1.9-5.7-3.3-11.8-5.2-17.6-.9-6.2-5.1-11.8-3.6-18.6.2-.5.8-.8 1.4-1zm204.1 0c8.1.3 17.5-.7 24.8.5 1.8 5.4 1 11.2 1 17V206c0 5.9.7 11.6-1 17.1-5.6.6-13.8.9-20.7.5-2-.1-4.4.5-5.7-1-1.8-5.4-1-11.1-1-17.1V98.1c0-6.5-.6-12.8 1-17.1.4-.5 1-.8 1.6-1z" fill="#0269b3"/></svg><svg viewBox="0 0 576 512" id="visa" xmlns="http://www.w3.org/2000/svg"><path d="M470.1 231.3s7.6 37.2 9.3 45H446c3.3-8.9 16-43.5 16-43.5-.2.3 3.3-9.1 5.3-14.9l2.8 13.4zM576 80v352c0 26.5-21.5 48-48 48H48c-26.5 0-48-21.5-48-48V80c0-26.5 21.5-48 48-48h480c26.5 0 48 21.5 48 48zM152.5 331.2L215.7 176h-42.5l-39.3 106-4.3-21.5-14-71.4c-2.3-9.9-9.4-12.7-18.2-13.1H32.7l-.7 3.1c15.8 4 29.9 9.8 42.2 17.1l35.8 135h42.5zm94.4.2L272.1 176h-40.2l-25.1 155.4h40.1zm139.9-50.8c.2-17.7-10.6-31.2-33.7-42.3-14.1-7.1-22.7-11.9-22.7-19.2.2-6.6 7.3-13.4 23.1-13.4 13.1-.3 22.7 2.8 29.9 5.9l3.6 1.7 5.5-33.6c-7.9-3.1-20.5-6.6-36-6.6-39.7 0-67.6 21.2-67.8 51.4-.3 22.3 20 34.7 35.2 42.2 15.5 7.6 20.8 12.6 20.8 19.3-.2 10.4-12.6 15.2-24.1 15.2-16 0-24.6-2.5-37.7-8.3l-5.3-2.5-5.6 34.9c9.4 4.3 26.8 8.1 44.8 8.3 42.2.1 69.7-20.8 70-53zM528 331.4L495.6 176h-31.1c-9.6 0-16.9 2.8-21 12.9l-59.7 142.5H426s6.9-19.2 8.4-23.3H486c1.2 5.5 4.8 23.3 4.8 23.3H528z"/></svg><svg viewBox="0 0 50 50" id="vk" xmlns="http://www.w3.org/2000/svg"><path d="M41 4H9C6.24 4 4 6.24 4 9v32c0 2.76 2.24 5 5 5h32c2.76 0 5-2.24 5-5V9c0-2.76-2.24-5-5-5zm-3.28 29l-3.73-.01s-.08.01-.21.01c-.3 0-.92-.08-1.65-.58-1.31-.91-2.56-3.17-3.55-3.17-.07 0-.13.01-.19.03-.86.27-1.12 1.13-1.12 2.18 0 .37-.26.54-.96.54h-1.93c-2.16 0-4.25-.05-6.6-2.62-3.46-3.79-6.7-10.53-6.7-10.53s-.18-.39.01-.62c.18-.21.6-.23.76-.23h4.06s.37.07.64.27c.23.17.35.48.35.48s.68 1.32 1.53 2.81c1.43 2.46 2.2 3.28 2.75 3.28.09 0 .18-.02.27-.07.82-.45.58-4.09.58-4.09s.01-1.32-.42-1.9c-.33-.46-.96-.59-1.24-.63-.22-.03.14-.55.62-.79.62-.3 1.65-.36 2.89-.36h.6c1.17.02 1.2.14 1.66.25 1.38.33.91 1.62.91 4.71 0 .99-.18 2.38.53 2.85.05.03.12.05.21.05.46 0 1.45-.59 3.03-3.26.88-1.52 1.56-3.03 1.56-3.03s.15-.27.38-.41c.22-.13.22-.13.51-.13h.03c.32 0 3.5-.03 4.2-.03h.08c.67 0 1.28.01 1.39.42.16.62-.49 1.73-2.2 4.03-2.82 3.77-3.14 3.49-.8 5.67 2.24 2.08 2.7 3.09 2.78 3.22.93 1.54-1.03 1.66-1.03 1.66z"/></svg><svg viewBox="0 0 64.06 63.03" id="webmoney" xmlns="http://www.w3.org/2000/svg"><path d="M31.848.487c4.993 0 9.744 1.144 14.007 3.2.67.302 1.34.663 2.008 1.024L44.94 7.3l-4.382-4.515-7.55 6.62L28.56 4.64 14.675 16.982l8.89 9.692-3.47 3.01 8.77 9.692-3.47 3.008L37.94 56.17l7.425-6.743 6.458 7.226c-1.28.963-2.68 1.928-4.2 2.77a32.11 32.11 0 01-15.712 4.09C14.31 63.513 0 49.37 0 31.973-.062 14.694 14.25.487 31.848.487zM26 30.045l7.612-6.743 6.822 7.525-7.614 6.742zm5.42 13.003l7.55-6.802 6.882 7.524-7.613 6.743zM20.584 17.223l7.6-6.743 6.82 7.525-7.613 6.742zM34.527 13.6L40.2 8.554l5.116 5.6-5.664 5.116zm10.1 23.177L50.3 31.73l5.116 5.657-5.664 5.06zm4.993 11.38l5.664-5.058 5.112 5.6-5.662 5.116zm2.315-26.007l3.775-3.372 3.41 3.734-3.774 3.37zm-4.872-11.137l3.775-3.43 3.412 3.792-3.778 3.37zm9.682 22.275l3.775-3.37 3.48 3.74-3.835 3.37zm-17-8.368l5.664-5.057 5.114 5.598-5.662 5.058z" fill="#106db3"/></svg></svg>